<?xml version="1.0" encoding="UTF-8"?><svg id="uuid-6587989b-be1b-409b-8895-982dbda54374" xmlns="http://www.w3.org/2000/svg" viewBox="0 0 1221.88 441.97"><defs><style>.uuid-c1d1e29e-4e1b-4d84-ac13-7ee618565e5f{font-family:MyriadPro-Regular, 'Myriad Pro';letter-spacing:0em;}.uuid-7ad4020f-da2a-4a33-9759-9d1073649f7b,.uuid-57032f18-55c0-4a6b-93d0-895b06304392{fill:none;stroke:#231f20;stroke-linecap:round;stroke-linejoin:round;}.uuid-46a48795-f77d-44e4-bee9-7bc87e2bf6b1{fill:#7f1b57;}.uuid-46a48795-f77d-44e4-bee9-7bc87e2bf6b1,.uuid-703d8941-6cd3-4ca8-823a-b6a3ca7161a0{stroke-width:0px;}.uuid-350a137a-8540-4e37-a858-d7d5c080757a{fill:#545456;font-size:45px;}.uuid-a66c2f15-9712-4814-9138-9e8d01fd1464{font-size:49.17px;}.uuid-a66c2f15-9712-4814-9138-9e8d01fd1464,.uuid-bf3c62f8-efb3-485d-a0c1-92c78d5cddfe,.uuid-b3a64696-23e8-4fc9-9a74-033f3a24d478{font-family:UTM-Alter-Gothic, 'UTM Alter Gothic';}.uuid-a66c2f15-9712-4814-9138-9e8d01fd1464,.uuid-b3a64696-23e8-4fc9-9a74-033f3a24d478{fill:#231f20;}.uuid-57032f18-55c0-4a6b-93d0-895b06304392{stroke-width:6px;}.uuid-b3a64696-23e8-4fc9-9a74-033f3a24d478{font-size:127.64px;}.uuid-703d8941-6cd3-4ca8-823a-b6a3ca7161a0{fill:#033521;}</style></defs><text class="uuid-b3a64696-23e8-4fc9-9a74-033f3a24d478" transform="translate(656.3 218.04)"><tspan x="0" y="0">PharmaCare</tspan></text><text class="uuid-a66c2f15-9712-4814-9138-9e8d01fd1464" transform="translate(721.86 294.28) scale(.91 1)"><tspan x="0" y="0">Nhà thuốc đạt chuẩn GPP</tspan></text><text class="uuid-350a137a-8540-4e37-a858-d7d5c080757a" transform="translate(600.73 352.38) scale(.91 1)"><tspan class="uuid-bf3c62f8-efb3-485d-a0c1-92c78d5cddfe" x="0" y="0">“Dược phẩm chính hãng </tspan><tspan class="uuid-c1d1e29e-4e1b-4d84-ac13-7ee618565e5f" x="358" y="0">–</tspan><tspan class="uuid-bf3c62f8-efb3-485d-a0c1-92c78d5cddfe" x="380.5" y="0" xml:space="preserve"> Chăm sóc tận tâm”</tspan></text><path class="uuid-57032f18-55c0-4a6b-93d0-895b06304392" d="m481.16,3v421.28V3Z"/><path class="uuid-7ad4020f-da2a-4a33-9759-9d1073649f7b" d="m1221.38,236.86h-605.93,605.93Z"/><path class="uuid-703d8941-6cd3-4ca8-823a-b6a3ca7161a0" d="m202.46,7.36c13.67-.03,27.15,1.56,40.52,4.46,19.06,4.14,37.29,10.47,54.49,19.69,14.75,7.91,28.42,17.34,40.93,28.49,19.32,17.22,34.49,37.6,46.15,60.6,7.6,14.98,12.91,30.79,16.12,47.33,3.12,16.08,4.47,32.3,3.89,48.62-.32,8.84-1.54,17.67-2.78,26.44-1.95,13.75-5.94,26.97-10.77,39.98-7.98,21.51-19.97,40.58-34.51,58.15-17.48,21.13-38.24,38.63-60.67,54.2-26.79,18.59-55.62,33.34-85.95,45.24-5.69,2.23-11.1,1.61-16.57-.61-38.43-15.64-74.35-35.7-107-61.39-25.1-19.75-46.17-43.07-61.86-71.05-8.74-15.58-14.82-32.17-19.1-49.47C.49,238.4-.59,218.44.27,198.32c.9-21.22,5.8-41.6,13.22-61.43,9.13-24.41,23.35-45.61,40.72-64.84,19.23-21.28,42.32-37.18,68.53-48.49,15.78-6.81,32.22-11.76,49.37-13.83,10.07-1.22,20.19-2,30.29-2.97.02.2.04.4.06.6Zm-17.15,318.11c-6.25-2.48-12.02-5.13-18.01-7.05-8.99-2.89-18.1-5.26-27.78-3.74-9.93,1.56-16.91,7.34-19.1,16.93-1.44,6.33-.57,12.6,1.69,18.7,3.49,9.4,9.58,17.09,16.31,24.27,10.71,11.44,22,22.28,34.02,32.37,15.82,13.28,39.15,12.94,54.02-1.34,15.27-14.66,30.21-29.59,43.79-45.86,5.1-6.11,9.95-12.35,12.89-19.86,2.79-7.13,4.26-14.44,2.36-22-3.34-13.29-13.09-19.56-25.63-20.25-8.88-.49-17.12,2.45-24.82,6.5-5.96,3.13-11.49,7.07-16.83,10.41-2.46-2.22-5.21-4.71-8.01-7.24.39-.47.65-.82.94-1.13.95-.99,1.87-2.02,2.89-2.93,11.99-10.69,25.61-18.68,40.64-24.2,18.42-6.76,37.24-9.19,56.41-3.56,12.63,3.71,22.91,10.76,29.15,22.81,3.84,7.41,4.68,15.37,4.4,23.54-.05,1.47,0,2.94,0,5.05,2.4-2.78,4.57-5.06,6.48-7.54,6.92-9.02,12.31-18.96,17.39-29.1,9.7-19.39,15.03-39.99,17.34-61.43,1.55-14.33,1.82-28.69-.48-42.96-1.49-9.23-2.97-18.55-5.51-27.52-7.33-25.87-20.44-48.67-38.15-68.84-16.74-19.07-36.51-34.16-59.62-44.72-19.55-8.94-40.04-14.46-61.48-16.49-12.99-1.23-25.95-1.09-38.9.26-11.56,1.2-22.92,3.45-34.11,6.67-24.41,7.03-46.33,18.67-65.45,35.4-21.49,18.8-38.1,41.21-49.64,67.41-8.14,18.48-12.6,37.8-14.23,57.84-1.52,18.69-.23,37.18,3.91,55.48,3.53,15.62,8.79,30.59,16.63,44.59,1.43,2.55,3.05,4.98,4.84,7.89.49-1.2.8-1.82,1.01-2.47,2.47-7.76,6.48-14.69,12.14-20.48,16.31-16.67,36.23-21.7,58.72-17.22,16.83,3.36,31.99,10.76,45.38,21.34,15.28,12.08,30.25,24.57,45.02,37.27,13.68,11.76,26.92,24.03,40.36,36.07,1.76,1.58,3.56,3.12,5.5,4.82-5.41,5.66-10.19,10.86-15.18,15.85-6.18,6.17-12.54,12.15-18.8,18.24-9.45,9.21-27.17,8.5-35.73,1.74-4.02-3.18-8.15-6.22-11.96-9.64-4.23-3.79-8.52-7.63-12.11-12.01-4.87-5.93-4.51-12.87.33-18.84,5.68-7,11.52-13.89,17.24-20.86,3.15-3.83,6.21-7.73,9.75-12.14Z"/><path class="uuid-46a48795-f77d-44e4-bee9-7bc87e2bf6b1" d="m327.76,268.53c-20.52.23-34.47-18.98-34.35-33.34.16-19.74,15.55-35.68,34.78-35.71,18.76-.03,34.91,15.74,34.55,34.37-.39,19.79-14.14,34.28-34.97,34.68Z"/><path class="uuid-46a48795-f77d-44e4-bee9-7bc87e2bf6b1" d="m89.91,187.63c0-7.11-.01-13.81,0-20.52.02-7.08.08-14.15.1-21.23.04-10.95,8.5-16.74,17.63-16.7,15.66.08,31.33.03,46.99.03.79,0,1.58,0,2.73,0,0-.99,0-1.82,0-2.65,0-14.95-.08-29.89.06-44.84.05-5.24,1.46-10.1,5.71-13.73,3.32-2.83,7.26-3.83,11.43-3.85,17.9-.08,35.8-.1,53.71-.01,3.75.02,7.46.68,10.73,2.8,5.64,3.66,7.32,9.24,7.35,15.5.07,14.73.03,29.46.03,44.19,0,.77,0,1.54,0,2.59,1.01,0,1.78,0,2.55,0,15.52,0,31.04-.09,46.56.06,6.9.07,12.76,2.56,16.05,9.08.94,1.87,1.57,4.12,1.58,6.2.12,17.04.04,34.08.07,51.12,0,2.43-1.02,4.02-3.03,5.3-4.68,2.97-9.2,6.3-14.83,7.25-2.76.47-5.59.75-8.39.77-12.99.08-25.99.03-38.98.03-.43,0-.86,0-1.62,0,0,.85,0,1.6,0,2.36-.12,16.32-.06,32.64-.44,48.95-.23,9.8-8.07,16.88-17.84,16.87-17.76-.02-35.52-.03-53.27-.03-10.81,0-17.52-6.42-17.59-17.3-.1-16.1.02-32.2.05-48.3,0-.77,0-1.55,0-2.47h-44.79c.61,1.69,1.19,3.26,1.74,4.85,5.28,15.44-1.04,37.45-20.85,45.63-20.94,8.64-46.43-3.4-51.29-26.72-3.82-18.33,5.79-39.86,27.61-45.46,6-1.54,12.01-1.23,18.02-.09.61.12,1.24.18,2.2.32Zm149.22-9.29c1.8,2.21,3.12,4.25,4.86,5.83,1.19,1.08,2.95,2.08,4.48,2.12,7.93.21,15.88.15,23.82.08,2.81-.03,5.37-2.29,5.91-4.86.97-4.66-1.93-8.3-6.77-8.36-4.98-.06-9.96.07-14.94-.08-1.05-.03-2.33-.65-3.07-1.42-1.74-1.81-3.25-3.86-4.8-5.85-2.15-2.76-4.78-4.72-8.23-5.59-5.47-1.37-9.31.6-11.19,5.87-3.09,8.66-6.19,17.32-9.37,26.18-.23-.4-.44-.61-.49-.86-1.39-6.47-2.72-12.96-4.13-19.43-3.88-17.73-7.78-35.45-11.69-53.18-.78-3.53-3.71-6.1-7.04-6.29-3.39-.19-6.18,1.81-7.25,5.59-4.04,14.34-8,28.71-11.97,43.07-1.99,7.18-3.94,14.38-6.14,22.4-2.75-2.94-5.06-5.47-7.45-7.94-1.68-1.73-3.78-2.55-6.23-2.54-7.94.03-15.88.02-23.82.05-.7,0-1.44.11-2.1.35-3.14,1.18-4.71,4.08-4.12,7.45.56,3.21,2.98,5.29,6.37,5.33,5.92.06,11.84.09,17.76.01,1.74-.02,3.01.53,4.2,1.75,3.88,3.97,7.81,7.9,11.78,11.8,5.39,5.31,11.85,3.6,13.86-3.68,3.11-11.24,6.15-22.5,9.24-33.75,1.55-5.64,3.13-11.27,4.76-17.15.31.45.48.6.52.78,1.99,9.15,3.94,18.31,5.97,27.45,3.06,13.85,6.16,27.69,9.31,41.52.26,1.15.88,2.32,1.63,3.23,3.09,3.71,10.12,4.21,12.58-2.25,2.92-7.67,5.76-15.38,8.58-23.08,1.73-4.72,3.37-9.46,5.17-14.56Z"/></svg>