<?xml version="1.0" encoding="UTF-8"?><svg id="uuid-6bbeb6c3-dfae-4bb7-9172-87e28d61226b" xmlns="http://www.w3.org/2000/svg" viewBox="0 0 657.96 707.56"><defs><style>.uuid-9d7a8cf1-6b45-4134-8ebe-637ad1366399{fill:#7f0055;}.uuid-9d7a8cf1-6b45-4134-8ebe-637ad1366399,.uuid-13a9b08b-10d8-44e9-b701-8e1a28a85ab7{stroke-width:0px;}.uuid-13a9b08b-10d8-44e9-b701-8e1a28a85ab7{fill:#003521;}</style></defs><path class="uuid-13a9b08b-10d8-44e9-b701-8e1a28a85ab7" d="m329.17.97c22.23-.04,44.14,2.54,65.87,7.26,30.98,6.72,60.62,17.01,88.59,32.01,23.98,12.86,46.21,28.19,66.54,46.32,31.41,28,56.07,61.13,75.03,98.52,12.35,24.36,21,50.06,26.21,76.94,5.07,26.14,7.27,52.52,6.32,79.05-.52,14.37-2.5,28.73-4.52,42.99-3.16,22.35-9.66,43.84-17.51,65-12.97,34.96-32.47,65.98-56.1,94.54-28.42,34.35-62.17,62.81-98.64,88.12-43.55,30.23-90.43,54.21-139.74,73.55-9.25,3.63-18.04,2.62-26.94-1-62.48-25.43-120.87-58.03-173.96-99.81-40.8-32.11-75.06-70.03-100.58-115.51-14.2-25.32-24.1-52.3-31.06-80.43C.79,376.61-.96,344.15.43,311.45c1.47-34.49,9.43-67.63,21.49-99.87,14.85-39.68,37.96-74.15,66.21-105.42,31.26-34.6,68.8-60.45,111.42-78.84,25.66-11.07,52.39-19.11,80.26-22.49,16.37-1.98,32.83-3.25,49.24-4.83.03.32.07.65.1.97Zm-27.88,517.18c-10.16-4.03-19.53-8.33-29.28-11.47-14.62-4.7-29.43-8.56-45.17-6.08-16.15,2.54-27.5,11.93-31.05,27.52-2.35,10.29-.93,20.49,2.75,30.4,5.68,15.29,15.58,27.78,26.51,39.45,17.41,18.59,35.76,36.22,55.3,52.62,25.73,21.6,63.65,21.03,87.82-2.17,24.83-23.83,49.12-48.11,71.19-74.55,8.3-9.94,16.17-20.08,20.96-32.29,4.54-11.59,6.92-23.48,3.83-35.76-5.43-21.61-21.28-31.8-41.66-32.92-14.44-.79-27.83,3.99-40.35,10.57-9.68,5.09-18.68,11.49-27.36,16.92-4-3.62-8.47-7.66-13.02-11.77.64-.77,1.05-1.34,1.53-1.84,1.55-1.6,3.04-3.28,4.7-4.76,19.49-17.37,41.63-30.37,66.08-39.34,29.95-11,60.55-14.94,91.72-5.8,20.54,6.03,37.24,17.49,47.4,37.08,6.24,12.05,7.6,24.99,7.15,38.28-.08,2.38-.01,4.77-.01,8.21,3.91-4.52,7.44-8.23,10.53-12.26,11.25-14.67,20.01-30.82,28.27-47.32,15.78-31.52,24.43-65.01,28.19-99.88,2.52-23.3,2.96-46.65-.78-69.85-2.43-15.01-4.83-30.15-8.96-44.75-11.91-42.06-33.23-79.13-62.03-111.93-27.22-31.01-59.36-55.53-96.93-72.71-31.79-14.54-65.09-23.51-99.96-26.81-21.13-2-42.19-1.77-63.24.42-18.79,1.95-37.27,5.61-55.45,10.85-39.69,11.42-75.32,30.35-106.41,57.55-34.95,30.56-61.94,67-80.7,109.6-13.24,30.05-20.48,61.45-23.13,94.04-2.48,30.38-.37,60.45,6.36,90.19,5.74,25.39,14.28,49.73,27.03,72.5,2.32,4.14,4.95,8.1,7.87,12.83.8-1.95,1.3-2.96,1.64-4.02,4.02-12.62,10.53-23.89,19.74-33.29,26.52-27.1,58.9-35.28,95.47-27.99,27.37,5.46,52.01,17.49,73.78,34.69,24.84,19.63,49.17,39.95,73.19,60.6,22.24,19.12,43.77,39.07,65.61,58.64,2.86,2.57,5.78,5.07,8.95,7.83-8.79,9.2-16.56,17.65-24.68,25.76-10.04,10.03-20.39,19.75-30.56,29.66-15.37,14.97-44.18,13.82-58.08,2.83-6.53-5.16-13.26-10.12-19.45-15.67-6.88-6.17-13.86-12.41-19.7-19.52-7.91-9.65-7.34-20.93.54-30.63,9.24-11.39,18.72-22.58,28.03-33.91,5.12-6.23,10.1-12.57,15.85-19.74Z"/><path class="uuid-9d7a8cf1-6b45-4134-8ebe-637ad1366399" d="m532.88,425.59c-33.36.38-56.04-30.86-55.85-54.2.25-32.09,25.27-58.01,56.54-58.06,30.5-.05,56.76,25.59,56.16,55.87-.63,32.17-22.98,55.73-56.86,56.39Z"/><path class="uuid-9d7a8cf1-6b45-4134-8ebe-637ad1366399" d="m146.17,294.06c0-11.56-.02-22.46,0-33.36.03-11.5.12-23.01.17-34.51.07-17.81,13.83-27.22,28.67-27.14,25.47.13,50.93.04,76.4.04,1.28,0,2.56,0,4.43,0,0-1.6,0-2.96,0-4.31,0-24.3-.13-48.6.1-72.9.08-8.52,2.37-16.42,9.29-22.33,5.4-4.61,11.81-6.23,18.59-6.26,29.1-.14,58.21-.17,87.31-.02,6.09.03,12.13,1.11,17.45,4.56,9.16,5.95,11.9,15.02,11.95,25.2.11,23.95.05,47.89.06,71.84,0,1.26,0,2.51,0,4.21,1.65,0,2.9,0,4.15,0,25.23,0,50.47-.14,75.7.1,11.21.11,20.75,4.16,26.09,14.77,1.53,3.04,2.55,6.69,2.57,10.08.19,27.7.06,55.4.12,83.11,0,3.96-1.65,6.54-4.93,8.62-7.61,4.83-14.96,10.24-24.11,11.78-4.49.76-9.09,1.23-13.64,1.25-21.12.12-42.25.05-63.37.04-.7,0-1.39,0-2.63,0,0,1.38,0,2.61,0,3.84-.2,26.53-.1,53.06-.71,79.58-.37,15.94-13.12,27.44-29,27.42-28.87-.04-57.74-.04-86.61-.04-17.58,0-28.48-10.45-28.59-28.13-.17-26.18.04-52.35.09-78.53,0-1.26,0-2.52,0-4.02h-72.82c.98,2.74,1.94,5.3,2.83,7.89,8.59,25.1-1.69,60.89-33.9,74.18-34.04,14.04-75.49-5.53-83.39-43.44-6.22-29.8,9.41-64.8,44.89-73.91,9.75-2.5,19.53-2,29.3-.14,1,.19,2.01.3,3.57.52Zm242.6-15.1c2.92,3.59,5.07,6.91,7.9,9.47,1.93,1.75,4.79,3.38,7.28,3.45,12.9.34,25.81.25,38.72.13,4.56-.04,8.74-3.72,9.61-7.9,1.58-7.58-3.14-13.5-11.01-13.58-8.1-.09-16.2.11-24.29-.12-1.71-.05-3.79-1.06-4.99-2.31-2.83-2.95-5.28-6.28-7.8-9.52-3.49-4.49-7.76-7.67-13.39-9.08-8.89-2.23-15.14.98-18.19,9.54-5.02,14.08-10.07,28.16-15.23,42.57-.38-.65-.71-1-.8-1.4-2.25-10.53-4.42-21.07-6.72-31.59-6.3-28.83-12.65-57.64-19-86.46-1.26-5.73-6.03-9.92-11.45-10.22-5.52-.31-10.05,2.94-11.78,9.09-6.57,23.32-13.01,46.67-19.47,70.02-3.23,11.68-6.41,23.37-9.98,36.41-4.47-4.77-8.23-8.9-12.11-12.9-2.74-2.82-6.15-4.15-10.12-4.14-12.91.05-25.82.03-38.73.08-1.14,0-2.35.17-3.41.57-5.1,1.92-7.65,6.63-6.69,12.12.92,5.22,4.84,8.61,10.36,8.66,9.62.09,19.25.15,28.87.02,2.83-.04,4.89.87,6.83,2.85,6.32,6.46,12.7,12.85,19.14,19.19,8.77,8.63,19.26,5.85,22.53-5.98,5.05-18.28,10.01-36.58,15.02-54.87,2.52-9.17,5.08-18.32,7.74-27.88.5.73.78.97.85,1.27,3.24,14.88,6.41,29.77,9.7,44.63,4.98,22.51,10.01,45.02,15.13,67.5.42,1.86,1.43,3.77,2.66,5.25,5.03,6.02,16.45,6.84,20.45-3.66,4.75-12.47,9.36-25,13.95-37.53,2.81-7.67,5.47-15.39,8.41-23.68Z"/></svg>